G04 DipTrace 2.4.0.2*
%INBottomSilk.gbr*%
%MOIN*%
%ADD39C,0.0077*%
%FSLAX44Y44*%
G04*
G70*
G90*
G75*
G01*
%LNBotSilk*%
%LPD*%
X19160Y13209D2*
D39*
X19183Y13256D1*
X19232Y13304D1*
X19279Y13328D1*
X19375D1*
X19423Y13304D1*
X19470Y13256D1*
X19495Y13209D1*
X19518Y13137D1*
Y13017D1*
X19495Y12946D1*
X19470Y12898D1*
X19423Y12850D1*
X19375Y12826D1*
X19279D1*
X19232Y12850D1*
X19183Y12898D1*
X19160Y12946D1*
Y13017D1*
X19279D1*
X18694Y13161D2*
X18718Y13089D1*
X18766Y13041D1*
X18838Y13017D1*
X18862D1*
X18933Y13041D1*
X18981Y13089D1*
X19005Y13161D1*
Y13184D1*
X18981Y13256D1*
X18933Y13304D1*
X18862Y13328D1*
X18838D1*
X18766Y13304D1*
X18718Y13256D1*
X18694Y13161D1*
Y13041D1*
X18718Y12921D1*
X18766Y12850D1*
X18838Y12826D1*
X18885D1*
X18957Y12850D1*
X18981Y12898D1*
X18540Y13328D2*
X18205Y12826D1*
Y13328D2*
X18540Y12826D1*
X17564Y13328D2*
Y12826D1*
X17278D1*
X16836Y13161D2*
Y12826D1*
Y13089D2*
X16884Y13137D1*
X16932Y13161D1*
X17003D1*
X17051Y13137D1*
X17099Y13089D1*
X17123Y13017D1*
Y12969D1*
X17099Y12898D1*
X17051Y12850D1*
X17003Y12826D1*
X16932D1*
X16884Y12850D1*
X16836Y12898D1*
X16419Y13089D2*
X16443Y13137D1*
X16514Y13161D1*
X16586D1*
X16658Y13137D1*
X16682Y13089D1*
X16658Y13041D1*
X16610Y13017D1*
X16491Y12993D1*
X16443Y12969D1*
X16419Y12921D1*
Y12898D1*
X16443Y12850D1*
X16514Y12826D1*
X16586D1*
X16658Y12850D1*
X16682Y12898D1*
X16264Y13017D2*
X15978D1*
Y13065D1*
X16001Y13113D1*
X16025Y13137D1*
X16073Y13161D1*
X16145D1*
X16193Y13137D1*
X16241Y13089D1*
X16264Y13017D1*
Y12969D1*
X16241Y12898D1*
X16193Y12850D1*
X16145Y12826D1*
X16073D1*
X16025Y12850D1*
X15978Y12898D1*
X15823Y13161D2*
Y12826D1*
Y13017D2*
X15799Y13089D1*
X15751Y13137D1*
X15703Y13161D1*
X15631D1*
X14632Y13209D2*
X14656Y13256D1*
X14704Y13304D1*
X14752Y13328D1*
X14847D1*
X14895Y13304D1*
X14943Y13256D1*
X14967Y13209D1*
X14991Y13137D1*
Y13017D1*
X14967Y12946D1*
X14943Y12898D1*
X14895Y12850D1*
X14847Y12826D1*
X14752D1*
X14704Y12850D1*
X14656Y12898D1*
X14632Y12946D1*
Y13017D1*
X14752D1*
X14191Y13161D2*
Y12826D1*
Y13089D2*
X14239Y13137D1*
X14287Y13161D1*
X14358D1*
X14406Y13137D1*
X14454Y13089D1*
X14478Y13017D1*
Y12969D1*
X14454Y12898D1*
X14406Y12850D1*
X14358Y12826D1*
X14287D1*
X14239Y12850D1*
X14191Y12898D1*
X14037Y13328D2*
Y12826D1*
X13882Y13161D2*
X13739Y12826D1*
X13595Y13161D1*
X13322D2*
X13369Y13137D1*
X13417Y13089D1*
X13441Y13017D1*
Y12969D1*
X13417Y12898D1*
X13369Y12850D1*
X13322Y12826D1*
X13250D1*
X13202Y12850D1*
X13154Y12898D1*
X13130Y12969D1*
Y13017D1*
X13154Y13089D1*
X13202Y13137D1*
X13250Y13161D1*
X13322D1*
X12490Y13328D2*
Y12826D1*
X12335Y13161D2*
Y12826D1*
Y13065D2*
X12263Y13137D1*
X12215Y13161D1*
X12144D1*
X12096Y13137D1*
X12072Y13065D1*
Y12826D1*
X11846Y13328D2*
Y12921D1*
X11822Y12850D1*
X11774Y12826D1*
X11726D1*
X11918Y13161D2*
X11750D1*
X11572Y13017D2*
X11285D1*
Y13065D1*
X11309Y13113D1*
X11333Y13137D1*
X11381Y13161D1*
X11453D1*
X11500Y13137D1*
X11548Y13089D1*
X11572Y13017D1*
Y12969D1*
X11548Y12898D1*
X11500Y12850D1*
X11453Y12826D1*
X11381D1*
X11333Y12850D1*
X11285Y12898D1*
X11131Y13161D2*
Y12826D1*
Y13017D2*
X11106Y13089D1*
X11059Y13137D1*
X11011Y13161D1*
X10939D1*
X10593Y13328D2*
X10641D1*
X10689Y13304D1*
X10713Y13233D1*
Y12826D1*
X10785Y13161D2*
X10617D1*
X10152D2*
Y12826D1*
Y13089D2*
X10200Y13137D1*
X10248Y13161D1*
X10319D1*
X10367Y13137D1*
X10415Y13089D1*
X10439Y13017D1*
Y12969D1*
X10415Y12898D1*
X10367Y12850D1*
X10319Y12826D1*
X10248D1*
X10200Y12850D1*
X10152Y12898D1*
X9710Y13089D2*
X9758Y13137D1*
X9807Y13161D1*
X9878D1*
X9926Y13137D1*
X9973Y13089D1*
X9998Y13017D1*
Y12969D1*
X9973Y12898D1*
X9926Y12850D1*
X9878Y12826D1*
X9807D1*
X9758Y12850D1*
X9710Y12898D1*
X9556Y13017D2*
X9269D1*
Y13065D1*
X9293Y13113D1*
X9317Y13137D1*
X9365Y13161D1*
X9437D1*
X9484Y13137D1*
X9532Y13089D1*
X9556Y13017D1*
Y12969D1*
X9532Y12898D1*
X9484Y12850D1*
X9437Y12826D1*
X9365D1*
X9317Y12850D1*
X9269Y12898D1*
X8663Y4698D2*
X8686Y4746D1*
X8735Y4794D1*
X8782Y4818D1*
X8878D1*
X8926Y4794D1*
X8973Y4746D1*
X8998Y4698D1*
X9021Y4626D1*
Y4506D1*
X8998Y4435D1*
X8973Y4387D1*
X8926Y4340D1*
X8878Y4315D1*
X8782D1*
X8735Y4340D1*
X8686Y4387D1*
X8663Y4435D1*
Y4506D1*
X8782D1*
X8508Y4650D2*
Y4315D1*
Y4506D2*
X8484Y4578D1*
X8436Y4626D1*
X8388Y4650D1*
X8316D1*
X8162D2*
Y4411D1*
X8138Y4340D1*
X8090Y4315D1*
X8018D1*
X7971Y4340D1*
X7899Y4411D1*
Y4650D2*
Y4315D1*
X7745Y4650D2*
X7601Y4315D1*
X7458Y4650D1*
X7303Y4818D2*
X7280Y4794D1*
X7255Y4818D1*
X7280Y4842D1*
X7303Y4818D1*
X7280Y4650D2*
Y4315D1*
X7101Y4650D2*
Y4315D1*
Y4555D2*
X7029Y4626D1*
X6981Y4650D1*
X6910D1*
X6862Y4626D1*
X6838Y4555D1*
Y4315D1*
X5743Y4650D2*
X5767D1*
X5791Y4626D1*
X5815Y4578D1*
X5863Y4459D1*
X5911Y4387D1*
X5958Y4339D1*
X6006Y4315D1*
X6102D1*
X6149Y4339D1*
X6174Y4363D1*
X6197Y4411D1*
Y4459D1*
X6174Y4506D1*
X6149Y4530D1*
X5982Y4626D1*
X5958Y4650D1*
X5934Y4698D1*
Y4746D1*
X5958Y4793D1*
X6006Y4817D1*
X6054Y4793D1*
X6078Y4746D1*
Y4698D1*
X6054Y4626D1*
X6006Y4555D1*
X5887Y4387D1*
X5839Y4339D1*
X5791Y4315D1*
X5743D1*
X4744Y4698D2*
X4768Y4746D1*
X4816Y4794D1*
X4863Y4818D1*
X4959D1*
X5007Y4794D1*
X5055Y4746D1*
X5079Y4698D1*
X5103Y4626D1*
Y4506D1*
X5079Y4435D1*
X5055Y4387D1*
X5007Y4340D1*
X4959Y4315D1*
X4863D1*
X4816Y4340D1*
X4768Y4387D1*
X4744Y4435D1*
X4470Y4650D2*
X4518Y4626D1*
X4566Y4578D1*
X4590Y4506D1*
Y4459D1*
X4566Y4387D1*
X4518Y4340D1*
X4470Y4315D1*
X4398D1*
X4350Y4340D1*
X4303Y4387D1*
X4278Y4459D1*
Y4506D1*
X4303Y4578D1*
X4350Y4626D1*
X4398Y4650D1*
X4470D1*
X17693Y10640D2*
Y10138D1*
X17539Y10473D2*
Y10138D1*
Y10377D2*
X17467Y10449D1*
X17419Y10473D1*
X17348D1*
X17300Y10449D1*
X17276Y10377D1*
Y10138D1*
X17122Y10473D2*
Y9971D1*
Y10401D2*
X17073Y10449D1*
X17026Y10473D1*
X16954D1*
X16906Y10449D1*
X16858Y10401D1*
X16834Y10329D1*
Y10281D1*
X16858Y10210D1*
X16906Y10162D1*
X16954Y10138D1*
X17026D1*
X17073Y10162D1*
X17122Y10210D1*
X16680Y10473D2*
Y10234D1*
X16656Y10162D1*
X16608Y10138D1*
X16536D1*
X16489Y10162D1*
X16417Y10234D1*
Y10473D2*
Y10138D1*
X16190Y10640D2*
Y10234D1*
X16167Y10162D1*
X16119Y10138D1*
X16071D1*
X16262Y10473D2*
X16095D1*
X15892D2*
X15917Y10449D1*
X15892Y10425D1*
X15869Y10449D1*
X15892Y10473D1*
Y10186D2*
X15917Y10162D1*
X15892Y10138D1*
X15869Y10162D1*
X15892Y10186D1*
X15228Y10377D2*
X15013D1*
X14941Y10401D1*
X14917Y10425D1*
X14893Y10473D1*
Y10545D1*
X14917Y10592D1*
X14941Y10617D1*
X15013Y10640D1*
X15228D1*
Y10138D1*
X14739Y10640D2*
X14619Y10138D1*
X14500Y10640D1*
X14380Y10138D1*
X14260Y10640D1*
X13723Y10138D2*
Y10640D1*
X13915Y10138D1*
X14106Y10640D1*
Y10138D1*
X13035Y10640D2*
X12772D1*
X12915Y10449D1*
X12844D1*
X12796Y10425D1*
X12772Y10401D1*
X12748Y10329D1*
Y10282D1*
X12772Y10210D1*
X12820Y10162D1*
X12892Y10138D1*
X12964D1*
X13035Y10162D1*
X13059Y10186D1*
X13083Y10234D1*
X12570Y10186D2*
X12594Y10162D1*
X12570Y10138D1*
X12546Y10162D1*
X12570Y10186D1*
X12343Y10640D2*
X12081D1*
X12224Y10449D1*
X12152D1*
X12104Y10425D1*
X12081Y10401D1*
X12056Y10329D1*
Y10282D1*
X12081Y10210D1*
X12128Y10162D1*
X12200Y10138D1*
X12272D1*
X12343Y10162D1*
X12367Y10186D1*
X12391Y10234D1*
X11902Y10640D2*
X11711Y10138D1*
X11519Y10640D1*
X17580Y9890D2*
X17628Y9867D1*
X17676Y9818D1*
X17700Y9771D1*
X17724Y9699D1*
Y9579D1*
X17700Y9508D1*
X17676Y9460D1*
X17628Y9412D1*
X17580Y9388D1*
X17484D1*
X17437Y9412D1*
X17389Y9460D1*
X17365Y9508D1*
X17341Y9579D1*
Y9699D1*
X17365Y9771D1*
X17389Y9818D1*
X17437Y9867D1*
X17484Y9890D1*
X17580D1*
X17187Y9723D2*
Y9484D1*
X17163Y9412D1*
X17115Y9388D1*
X17043D1*
X16996Y9412D1*
X16924Y9484D1*
Y9723D2*
Y9388D1*
X16698Y9890D2*
Y9484D1*
X16674Y9412D1*
X16626Y9388D1*
X16578D1*
X16769Y9723D2*
X16602D1*
X16424D2*
Y9220D1*
Y9651D2*
X16376Y9699D1*
X16328Y9723D1*
X16256D1*
X16208Y9699D1*
X16161Y9651D1*
X16136Y9579D1*
Y9531D1*
X16161Y9460D1*
X16208Y9412D1*
X16256Y9388D1*
X16328D1*
X16376Y9412D1*
X16424Y9460D1*
X15982Y9723D2*
Y9484D1*
X15958Y9412D1*
X15910Y9388D1*
X15838D1*
X15791Y9412D1*
X15719Y9484D1*
Y9723D2*
Y9388D1*
X15493Y9890D2*
Y9484D1*
X15469Y9412D1*
X15421Y9388D1*
X15373D1*
X15565Y9723D2*
X15397D1*
X15195D2*
X15219Y9699D1*
X15195Y9675D1*
X15171Y9699D1*
X15195Y9723D1*
Y9436D2*
X15219Y9412D1*
X15195Y9388D1*
X15171Y9412D1*
X15195Y9436D1*
X14530Y9890D2*
Y9388D1*
X14315D1*
X14243Y9412D1*
X14219Y9436D1*
X14195Y9484D1*
Y9555D1*
X14219Y9603D1*
X14243Y9627D1*
X14315Y9651D1*
X14243Y9675D1*
X14219Y9699D1*
X14195Y9747D1*
Y9795D1*
X14219Y9842D1*
X14243Y9867D1*
X14315Y9890D1*
X14530D1*
Y9651D2*
X14315D1*
X13754Y9723D2*
Y9388D1*
Y9651D2*
X13802Y9699D1*
X13850Y9723D1*
X13921D1*
X13969Y9699D1*
X14017Y9651D1*
X14041Y9579D1*
Y9532D1*
X14017Y9460D1*
X13969Y9412D1*
X13921Y9388D1*
X13850D1*
X13802Y9412D1*
X13754Y9460D1*
X13600Y9890D2*
Y9388D1*
X13422Y9436D2*
X13445Y9412D1*
X13422Y9388D1*
X13397Y9412D1*
X13422Y9436D1*
X12542Y9854D2*
Y9424D1*
X12757Y9639D2*
X12326D1*
X12172Y9388D2*
X11837Y9890D1*
X11683Y9639D2*
X11406D1*
X10479Y9890D2*
X10718D1*
X10742Y9675D1*
X10718Y9699D1*
X10646Y9723D1*
X10575D1*
X10503Y9699D1*
X10455Y9651D1*
X10431Y9579D1*
Y9532D1*
X10455Y9460D1*
X10503Y9412D1*
X10575Y9388D1*
X10646D1*
X10718Y9412D1*
X10742Y9436D1*
X10766Y9484D1*
X10277Y9890D2*
X10085Y9388D1*
X9894Y9890D1*
X17718Y11453D2*
Y10951D1*
X17551D1*
X17479Y10975D1*
X17431Y11022D1*
X17407Y11071D1*
X17384Y11142D1*
Y11262D1*
X17407Y11334D1*
X17431Y11381D1*
X17479Y11429D1*
X17551Y11453D1*
X17718D1*
X17229Y11286D2*
Y11046D1*
X17205Y10975D1*
X17157Y10951D1*
X17085D1*
X17038Y10975D1*
X16966Y11046D1*
Y11286D2*
Y10951D1*
X16525Y11286D2*
Y10951D1*
Y11214D2*
X16572Y11262D1*
X16620Y11286D1*
X16692D1*
X16740Y11262D1*
X16787Y11214D1*
X16812Y11142D1*
Y11094D1*
X16787Y11022D1*
X16740Y10975D1*
X16692Y10951D1*
X16620D1*
X16572Y10975D1*
X16525Y11022D1*
X16370Y11453D2*
Y10951D1*
X15371Y11334D2*
X15395Y11381D1*
X15443Y11429D1*
X15491Y11453D1*
X15586D1*
X15634Y11429D1*
X15682Y11381D1*
X15706Y11334D1*
X15730Y11262D1*
Y11142D1*
X15706Y11071D1*
X15682Y11022D1*
X15634Y10975D1*
X15586Y10951D1*
X15491D1*
X15443Y10975D1*
X15395Y11022D1*
X15371Y11071D1*
X15217Y11453D2*
Y10951D1*
Y11190D2*
X15145Y11262D1*
X15097Y11286D1*
X15025D1*
X14978Y11262D1*
X14954Y11190D1*
Y10951D1*
X14513Y11286D2*
Y10951D1*
Y11214D2*
X14560Y11262D1*
X14608Y11286D1*
X14679D1*
X14728Y11262D1*
X14775Y11214D1*
X14799Y11142D1*
Y11094D1*
X14775Y11022D1*
X14728Y10975D1*
X14679Y10951D1*
X14608D1*
X14560Y10975D1*
X14513Y11022D1*
X14358Y11286D2*
Y10951D1*
Y11190D2*
X14286Y11262D1*
X14238Y11286D1*
X14167D1*
X14119Y11262D1*
X14095Y11190D1*
Y10951D1*
X13941Y11286D2*
Y10951D1*
Y11190D2*
X13869Y11262D1*
X13821Y11286D1*
X13749D1*
X13701Y11262D1*
X13678Y11190D1*
Y10951D1*
X13523Y11142D2*
X13236D1*
Y11190D1*
X13260Y11238D1*
X13284Y11262D1*
X13332Y11286D1*
X13404D1*
X13451Y11262D1*
X13499Y11214D1*
X13523Y11142D1*
Y11094D1*
X13499Y11022D1*
X13451Y10975D1*
X13404Y10951D1*
X13332D1*
X13284Y10975D1*
X13236Y11022D1*
X13082Y11453D2*
Y10951D1*
M02*
