M48
INCH
T01C0.0191
T02C0.0354
T03C0.0433
%
T01
X+014210Y+005788
X+013359Y+005788
X+012940Y+005128
X+012628Y+006878
X+012513Y+007690
X+012065Y+008816
X+011190Y+008941
X+011065Y+008414
X+009065Y+009940
X+008565Y+009440
X+008426Y+010700
X+008252Y+007378
X+006064Y+007191
X+014269Y+011690
X+015484Y+012217
X+016565Y+011815
X+016315Y+009092
X+015815Y+008566
X+015315Y+009092
T02
X+011440Y+012065
X+008440Y+013065
X+006440Y+012065
T03
X+005315Y+007690
X+005315Y+008690
X+005315Y+009690
X+008690Y+006253
X+009690Y+006253
X+010690Y+006253
X+018440Y+006315
X+018440Y+005315
X+018440Y+007315
X+018440Y+010190
X+018440Y+011190
X+018440Y+012190
T00
M30
