G04 DipTrace Beta 2.3.5.2*
%INTop.gbr*%
%MOIN*%
%ADD14C,0.013*%
%ADD15R,0.0394X0.0433*%
%ADD16R,0.0669X0.0669*%
%ADD17C,0.0669*%
%ADD18C,0.0591*%
%ADD19C,0.0591*%
%ADD20R,0.0433X0.0394*%
%ADD21R,0.0236X0.0787*%
%ADD22R,0.0591X0.0591*%
%ADD23C,0.04*%
%FSLAX44Y44*%
G04*
G70*
G90*
G75*
G01*
%LNTop*%
%LPD*%
X12513Y7690D2*
D14*
X12065D1*
X15315Y9092D2*
Y9816D1*
X8690Y6253D2*
Y6285D1*
X4657D1*
X4377Y6566D1*
Y11754D1*
X4688Y12065D1*
X6440D1*
X7252Y6253D2*
X8690D1*
X15315Y7690D2*
Y8065D1*
X14940Y8440D1*
X14024D1*
X13711Y8754D1*
X12790D1*
X12638Y8906D1*
Y10145D1*
X12378Y10405D1*
X10716D1*
X10565Y10254D1*
Y9816D1*
X12087Y6308D2*
Y6271D1*
X10707D1*
X10690Y6253D1*
X10127Y6816D1*
X9502D1*
X8190Y8128D1*
Y9941D1*
X8627Y10379D1*
X10377D1*
X10565Y10191D1*
Y9816D1*
X15815D2*
Y8566D1*
X9690Y6253D2*
X9065Y6878D1*
X6377D1*
X6064Y7191D1*
X15815Y8566D2*
Y7690D1*
Y8566D2*
X15314D1*
X14815Y9065D1*
Y9816D1*
X15815Y7690D2*
Y7253D1*
X15654Y7092D1*
X14977D1*
X14815Y7254D1*
Y7690D1*
X7252Y5584D2*
X7451Y5385D1*
X9447D1*
X9690Y5628D1*
Y6253D1*
X12087Y5638D2*
X11834Y5385D1*
X9933D1*
X9690Y5628D1*
X7752Y8048D2*
Y8690D1*
Y9209D1*
X5315Y8690D2*
X7752D1*
X12940Y5128D2*
X12654Y5071D1*
X12087Y5638D1*
X12065Y9816D2*
Y8816D1*
X15815Y8566D2*
X16753D1*
X16940Y8754D1*
X17503D1*
X15896Y10940D2*
Y11146D1*
X16129Y11379D1*
X16878D1*
X17065Y11191D1*
Y10440D1*
X16815Y10190D1*
Y9816D1*
X16129Y11379D2*
Y12004D1*
X16440Y12315D1*
X18440D1*
Y12190D1*
X16565Y10940D2*
Y10504D1*
X14984D1*
X14003D1*
X13815Y10316D1*
Y9816D1*
X14269Y11690D2*
X14815D1*
X16565Y11815D2*
X16815D1*
X18440Y10190D1*
X14984Y10940D2*
Y10504D1*
X14815Y11690D2*
X14833D1*
Y10940D1*
X14984D1*
X7002Y8066D2*
X5691D1*
X5315Y7690D1*
X13359Y5788D2*
Y6315D1*
Y6707D1*
X13065Y7001D1*
Y7565D1*
X14315Y6440D2*
Y7690D1*
X14210Y5788D2*
X14315Y5893D1*
Y6440D1*
X16315Y7690D2*
Y7092D1*
X16055Y6832D1*
X15744D1*
X15484Y6572D1*
Y5690D1*
X14315Y10940D2*
X13359D1*
Y11065D1*
X13457D1*
Y9315D1*
Y9165D1*
X13557Y9065D1*
X14215D1*
X14315Y9165D1*
Y9816D1*
X13457Y9315D2*
X13065D1*
X15484Y12217D2*
Y11690D1*
X16315Y9092D2*
Y9816D1*
X11565Y7690D2*
Y7191D1*
X11440Y7066D1*
X10377D1*
X10217Y7227D1*
Y7440D1*
Y8530D1*
X11065Y9379D1*
Y9816D1*
X10217Y7440D2*
X9565D1*
X9065Y9940D2*
X9565D1*
X11190Y8941D2*
X11377D1*
X11565Y9129D1*
Y9816D1*
X9565Y9940D2*
X9690D1*
X9957Y9673D1*
Y8332D1*
X9734Y8109D1*
X9565D1*
X7002Y7397D2*
X7734D1*
X7752Y7378D1*
X12690Y6315D2*
X12628Y6377D1*
Y6878D1*
X8252Y7378D2*
X7752D1*
Y9879D2*
Y11004D1*
X8315Y11566D1*
X12189D1*
X12690Y11065D1*
X8565Y9440D2*
X8815Y9252D1*
X9565D1*
Y9271D1*
X8426Y10700D2*
X8761D1*
X9377Y11316D1*
X10502D1*
X11627D1*
X12243Y10700D1*
X12618D1*
X13065Y10254D1*
Y9984D1*
Y8234D2*
X12468D1*
X12288Y8414D1*
X11065D1*
Y7690D1*
Y8414D2*
X10789D1*
X10565Y8190D1*
Y7690D1*
X10502Y10879D2*
Y11316D1*
X18440Y7315D2*
X16815D1*
Y6440D1*
X16734D1*
X16815Y7315D2*
Y7690D1*
X18440Y5315D2*
X16075D1*
X16065Y5325D1*
X15805Y5065D1*
X14815D1*
X14075D1*
X13815Y5325D1*
Y7690D1*
X16065Y5325D2*
Y6440D1*
X14815Y5690D2*
Y5065D1*
X14984Y6440D2*
X14833D1*
Y5690D1*
X14815D1*
D23*
X6064Y7191D3*
X12940Y5128D3*
X12065Y8816D3*
X12628Y6878D3*
X8252Y7378D3*
X14210Y5788D3*
X13359D3*
X15815Y8566D3*
X14269Y11690D3*
X16565Y11815D3*
X15484Y12217D3*
X16315Y9092D3*
X12513Y7690D3*
X15315Y9092D3*
X8426Y10700D3*
X11065Y8414D3*
X11190Y8941D3*
X9065Y9940D3*
X8565Y9440D3*
D15*
X7252Y6253D3*
Y5584D3*
X12087Y5638D3*
Y6308D3*
X7752Y7378D3*
Y8048D3*
Y9879D3*
Y9209D3*
D16*
X5315Y7690D3*
D17*
Y8690D3*
Y9690D3*
D16*
X18440Y7315D3*
D17*
Y6315D3*
Y5315D3*
D16*
Y12190D3*
D17*
Y11190D3*
Y10190D3*
D16*
X10690Y6253D3*
D17*
X9690D3*
X8690D3*
D18*
X10502Y10879D3*
D19*
X9627Y12066D3*
D18*
X17503Y8754D3*
D20*
X12690Y6315D3*
X13359D3*
X14315Y6440D3*
X14984D3*
X14815Y5690D3*
X15484D3*
X16065Y6440D3*
X16734D3*
X12690Y11065D3*
X13359D3*
X14315Y10940D3*
X14984D3*
X14815Y11690D3*
X15484D3*
X16565Y10940D3*
X15896D3*
D15*
X13065Y7565D3*
Y8234D3*
Y9315D3*
Y9984D3*
X7002Y8066D3*
Y7397D3*
X9565Y7440D3*
Y8109D3*
Y9940D3*
Y9271D3*
X7002Y9879D3*
Y9209D3*
D21*
X13815Y7690D3*
X14315D3*
X14815D3*
X15315D3*
X15815D3*
X16315D3*
X16815D3*
Y9816D3*
X16315D3*
X15815D3*
X15315D3*
X14815D3*
X14315D3*
X13815D3*
X10565Y7690D3*
X11065D3*
X11565D3*
X12065D3*
Y9816D3*
X11565D3*
X11065D3*
X10565D3*
D22*
X11440Y12065D3*
D18*
X8440Y13065D3*
X6440Y12065D3*
M02*
