G04 DipTrace 2.4.0.2*
%INTopDimension.gbr*%
%MOIN*%
%ADD13C,0.0015*%
%ADD41C,0.0062*%
%FSLAX44Y44*%
G04*
G70*
G90*
G75*
G01*
%LNTopDimension*%
%LPD*%
X3940Y3253D2*
D13*
Y2493D1*
X19815Y2940D2*
Y2493D1*
X11878Y2690D2*
X4334D1*
G36*
X3940D2*
X4334Y2769D1*
Y2611D1*
X3940Y2690D1*
G37*
X11878D2*
D13*
X19421D1*
G36*
X19815D2*
X19421Y2611D1*
Y2769D1*
X19815Y2690D1*
G37*
X3377Y13692D2*
D13*
X2555D1*
X3377Y3940D2*
X2555D1*
X2751Y8816D2*
Y13298D1*
G36*
Y13692D2*
X2830Y13298D1*
X2673D1*
X2751Y13692D1*
G37*
Y8816D2*
D13*
Y4334D1*
G36*
Y3940D2*
X2673Y4334D1*
X2830D1*
X2751Y3940D1*
G37*
X11192Y3137D2*
D41*
X11231Y3157D1*
X11288Y3214D1*
Y2812D1*
X11431Y2851D2*
X11412Y2831D1*
X11431Y2812D1*
X11450Y2831D1*
X11431Y2851D1*
X11803Y3214D2*
X11612D1*
X11593Y3042D1*
X11612Y3061D1*
X11670Y3080D1*
X11727D1*
X11784Y3061D1*
X11823Y3023D1*
X11842Y2965D1*
Y2927D1*
X11823Y2870D1*
X11784Y2831D1*
X11727Y2812D1*
X11670D1*
X11612Y2831D1*
X11593Y2851D1*
X11574Y2889D1*
X12061Y3214D2*
X12004Y3195D1*
X11984Y3157D1*
Y3118D1*
X12004Y3080D1*
X12042Y3061D1*
X12118Y3042D1*
X12176Y3023D1*
X12214Y2984D1*
X12233Y2946D1*
Y2889D1*
X12214Y2851D1*
X12195Y2831D1*
X12137Y2812D1*
X12061D1*
X12004Y2831D1*
X11984Y2851D1*
X11965Y2889D1*
Y2946D1*
X11984Y2984D1*
X12023Y3023D1*
X12080Y3042D1*
X12156Y3061D1*
X12195Y3080D1*
X12214Y3118D1*
Y3157D1*
X12195Y3195D1*
X12137Y3214D1*
X12061D1*
X12433Y2812D2*
X12624Y3214D1*
X12356D1*
X2228Y8169D2*
X2247Y8112D1*
X2304Y8073D1*
X2400Y8054D1*
X2457D1*
X2553Y8073D1*
X2610Y8112D1*
X2629Y8169D1*
Y8207D1*
X2610Y8265D1*
X2553Y8303D1*
X2457Y8322D1*
X2400D1*
X2304Y8303D1*
X2247Y8265D1*
X2228Y8207D1*
Y8169D1*
X2304Y8303D2*
X2553Y8073D1*
X2591Y8465D2*
X2610Y8446D1*
X2629Y8465D1*
X2610Y8484D1*
X2591Y8465D1*
X2361Y8857D2*
X2419Y8837D1*
X2457Y8799D1*
X2476Y8742D1*
Y8723D1*
X2457Y8665D1*
X2419Y8627D1*
X2361Y8608D1*
X2342D1*
X2285Y8627D1*
X2247Y8665D1*
X2228Y8723D1*
Y8742D1*
X2247Y8799D1*
X2285Y8837D1*
X2361Y8857D1*
X2457D1*
X2553Y8837D1*
X2610Y8799D1*
X2629Y8742D1*
Y8704D1*
X2610Y8646D1*
X2572Y8627D1*
X2629Y9057D2*
X2228Y9248D1*
Y8980D1*
Y9601D2*
Y9410D1*
X2400Y9391D1*
X2381Y9410D1*
X2361Y9468D1*
Y9525D1*
X2381Y9582D1*
X2419Y9621D1*
X2476Y9640D1*
X2514D1*
X2572Y9621D1*
X2610Y9582D1*
X2629Y9525D1*
Y9468D1*
X2610Y9410D1*
X2591Y9391D1*
X2553Y9372D1*
M02*
