G04 DipTrace 2.4.0.2*
%INTopMask.gbr*%
%MOIN*%
%ADD16R,0.0669X0.0669*%
%ADD17C,0.0669*%
%ADD31R,0.0316X0.0867*%
%ADD33R,0.0513X0.0474*%
%ADD35C,0.0749*%
%ADD36R,0.0749X0.0749*%
%ADD37R,0.0474X0.0513*%
%FSLAX44Y44*%
G04*
G70*
G90*
G75*
G01*
%LNTopMask*%
%LPD*%
D37*
X12087Y6308D3*
Y5638D3*
X7252Y5584D3*
Y6253D3*
X7752Y7378D3*
Y8048D3*
Y9879D3*
Y9209D3*
D36*
X5315Y7690D3*
D35*
Y8690D3*
Y9690D3*
D36*
X18440Y7315D3*
D35*
Y6315D3*
Y5315D3*
D36*
Y12190D3*
D35*
Y11190D3*
Y10190D3*
D36*
X10690Y6253D3*
D35*
X9690D3*
X8690D3*
D33*
X12690Y6315D3*
X13359D3*
X14315Y6440D3*
X14984D3*
X14815Y5690D3*
X15484D3*
X16065Y6440D3*
X16734D3*
X12690Y11065D3*
X13359D3*
X14315Y10940D3*
X14984D3*
X14815Y11690D3*
X15484D3*
X16565Y10940D3*
X15896D3*
D37*
X13065Y7565D3*
Y8234D3*
Y9315D3*
Y9984D3*
X7002Y8066D3*
Y7397D3*
X9565Y7440D3*
Y8109D3*
Y9940D3*
Y9271D3*
X7002Y9879D3*
Y9209D3*
D31*
X13815Y7690D3*
X14315D3*
X14815D3*
X15315D3*
X15815D3*
X16315D3*
X16815D3*
Y9816D3*
X16315D3*
X15815D3*
X15315D3*
X14815D3*
X14315D3*
X13815D3*
X10565Y7690D3*
X11065D3*
X11565D3*
X12065D3*
Y9816D3*
X11565D3*
X11065D3*
X10565D3*
D16*
X11440Y12065D3*
D17*
X8440Y13065D3*
X6440Y12065D3*
X17691Y8754D3*
X10502Y10879D3*
M02*
