G04 DipTrace Beta 2.3.5.2*
%INTopSilk.gbr*%
%MOIN*%
%ADD10C,0.0098*%
%ADD12C,0.003*%
%ADD43C,0.0046*%
%FSLAX44Y44*%
G04*
G70*
G90*
G75*
G01*
%LNTopSilk*%
%LPD*%
X4815Y7190D2*
D10*
X5815D1*
Y10190D1*
X4815D1*
Y7190D1*
X18940Y7815D2*
X17940D1*
Y4815D1*
X18940D1*
Y7815D1*
Y12690D2*
X17940D1*
Y9690D1*
X18940D1*
Y12690D1*
X11190Y5753D2*
X8190D1*
Y6753D1*
X11190D1*
Y5753D1*
X13622Y8241D2*
X17008D1*
X13622Y9265D2*
X17008D1*
Y8241D2*
Y9265D1*
X13622Y8241D2*
Y8556D1*
Y8950D2*
Y9265D1*
Y8556D2*
G03X13622Y8950I0J197D01*
G01*
X10331Y8241D2*
X12299D1*
X10331Y9265D2*
X12299D1*
Y8241D2*
Y9265D1*
X10331Y8556D2*
Y8241D1*
Y8950D2*
Y9265D1*
Y8556D2*
G03X10331Y8950I0J197D01*
G01*
X12637Y11514D2*
X5141D1*
X12637Y13411D2*
X8889D1*
X12637D2*
Y11514D1*
X5141Y13411D2*
Y11514D1*
X5133Y11998D2*
X4534D1*
Y12927D1*
X5133D1*
Y11998D1*
X7904Y13411D2*
X5141D1*
X6805Y6342D2*
D12*
X6796Y6361D1*
X6777Y6380D1*
X6758Y6390D1*
X6719D1*
X6700Y6380D1*
X6681Y6361D1*
X6671Y6342D1*
X6662Y6313D1*
Y6265D1*
X6671Y6237D1*
X6681Y6218D1*
X6700Y6199D1*
X6719Y6189D1*
X6758D1*
X6777Y6199D1*
X6796Y6218D1*
X6805Y6237D1*
X6867Y6351D2*
X6886Y6361D1*
X6915Y6390D1*
Y6189D1*
X12096Y6777D2*
X12087Y6796D1*
X12068Y6815D1*
X12049Y6825D1*
X12010D1*
X11991Y6815D1*
X11972Y6796D1*
X11963Y6777D1*
X11953Y6748D1*
Y6700D1*
X11963Y6672D1*
X11972Y6653D1*
X11991Y6634D1*
X12010Y6624D1*
X12049D1*
X12068Y6634D1*
X12087Y6653D1*
X12096Y6672D1*
X12168Y6777D2*
Y6786D1*
X12177Y6806D1*
X12187Y6815D1*
X12206Y6825D1*
X12244D1*
X12263Y6815D1*
X12273Y6806D1*
X12283Y6786D1*
Y6767D1*
X12273Y6748D1*
X12254Y6720D1*
X12158Y6624D1*
X12292D1*
X8217Y8146D2*
X8207Y8165D1*
X8188Y8184D1*
X8169Y8193D1*
X8131D1*
X8111Y8184D1*
X8092Y8165D1*
X8083Y8146D1*
X8073Y8117D1*
Y8069D1*
X8083Y8040D1*
X8092Y8021D1*
X8111Y8002D1*
X8131Y7992D1*
X8169D1*
X8188Y8002D1*
X8207Y8021D1*
X8217Y8040D1*
X8298Y8193D2*
X8403D1*
X8345Y8117D1*
X8374D1*
X8393Y8107D1*
X8403Y8098D1*
X8412Y8069D1*
Y8050D1*
X8403Y8021D1*
X8384Y8002D1*
X8355Y7992D1*
X8326D1*
X8298Y8002D1*
X8288Y8012D1*
X8278Y8031D1*
X8212Y9164D2*
X8202Y9183D1*
X8183Y9202D1*
X8164Y9212D1*
X8126D1*
X8107Y9202D1*
X8088Y9183D1*
X8078Y9164D1*
X8068Y9135D1*
Y9087D1*
X8078Y9059D1*
X8088Y9040D1*
X8107Y9021D1*
X8126Y9011D1*
X8164D1*
X8183Y9021D1*
X8202Y9040D1*
X8212Y9059D1*
X8369Y9011D2*
Y9212D1*
X8274Y9078D1*
X8417D1*
X6335Y6956D2*
Y6803D1*
X6326Y6774D1*
X6316Y6764D1*
X6297Y6755D1*
X6278D1*
X6259Y6764D1*
X6249Y6774D1*
X6239Y6803D1*
Y6822D1*
X6397Y6917D2*
X6416Y6927D1*
X6445Y6955D1*
Y6755D1*
X19505Y4223D2*
Y4070D1*
X19496Y4041D1*
X19486Y4032D1*
X19467Y4022D1*
X19448D1*
X19429Y4032D1*
X19419Y4041D1*
X19410Y4070D1*
Y4089D1*
X19577Y4175D2*
Y4184D1*
X19586Y4204D1*
X19596Y4213D1*
X19615Y4223D1*
X19653D1*
X19672Y4213D1*
X19682Y4204D1*
X19692Y4184D1*
Y4165D1*
X19682Y4146D1*
X19663Y4118D1*
X19567Y4022D1*
X19701D1*
X19505Y13598D2*
Y13445D1*
X19496Y13416D1*
X19486Y13407D1*
X19467Y13397D1*
X19448D1*
X19429Y13407D1*
X19419Y13416D1*
X19410Y13445D1*
Y13464D1*
X19586Y13598D2*
X19691D1*
X19634Y13521D1*
X19663D1*
X19682Y13512D1*
X19691Y13502D1*
X19701Y13473D1*
Y13454D1*
X19691Y13426D1*
X19672Y13406D1*
X19644Y13397D1*
X19615D1*
X19586Y13406D1*
X19577Y13416D1*
X19567Y13435D1*
X7268Y6876D2*
Y6723D1*
X7258Y6694D1*
X7249Y6685D1*
X7230Y6675D1*
X7210D1*
X7191Y6685D1*
X7182Y6694D1*
X7172Y6723D1*
Y6742D1*
X7425Y6675D2*
Y6876D1*
X7330Y6742D1*
X7473D1*
X12715Y5897D2*
X12801D1*
X12830Y5906D1*
X12840Y5916D1*
X12849Y5935D1*
Y5954D1*
X12840Y5973D1*
X12830Y5983D1*
X12801Y5992D1*
X12715D1*
Y5791D1*
X12782Y5897D2*
X12849Y5791D1*
X12911Y5954D2*
X12930Y5964D1*
X12959Y5992D1*
Y5791D1*
X14472Y6795D2*
X14558D1*
X14587Y6805D1*
X14596Y6814D1*
X14606Y6833D1*
Y6853D1*
X14596Y6872D1*
X14587Y6881D1*
X14558Y6891D1*
X14472D1*
Y6690D1*
X14539Y6795D2*
X14606Y6690D1*
X14677Y6843D2*
Y6852D1*
X14687Y6872D1*
X14696Y6881D1*
X14716Y6891D1*
X14754D1*
X14773Y6881D1*
X14782Y6872D1*
X14792Y6852D1*
Y6833D1*
X14782Y6814D1*
X14763Y6786D1*
X14668Y6690D1*
X14802D1*
X15039Y5311D2*
X15125D1*
X15154Y5321D1*
X15164Y5330D1*
X15173Y5349D1*
Y5368D1*
X15164Y5387D1*
X15154Y5397D1*
X15125Y5407D1*
X15039D1*
Y5206D1*
X15106Y5311D2*
X15173Y5206D1*
X15254Y5406D2*
X15359D1*
X15302Y5330D1*
X15331D1*
X15350Y5320D1*
X15359Y5311D1*
X15369Y5282D1*
Y5263D1*
X15359Y5234D1*
X15340Y5215D1*
X15311Y5206D1*
X15283D1*
X15254Y5215D1*
X15245Y5225D1*
X15235Y5244D1*
X16295Y6061D2*
X16381D1*
X16410Y6071D1*
X16419Y6080D1*
X16429Y6099D1*
Y6118D1*
X16419Y6137D1*
X16410Y6147D1*
X16381Y6157D1*
X16295D1*
Y5956D1*
X16362Y6061D2*
X16429Y5956D1*
X16586D2*
Y6156D1*
X16491Y6023D1*
X16634D1*
X12860Y11459D2*
X12946D1*
X12975Y11469D1*
X12984Y11478D1*
X12994Y11497D1*
Y11516D1*
X12984Y11536D1*
X12975Y11545D1*
X12946Y11555D1*
X12860D1*
Y11354D1*
X12927Y11459D2*
X12994Y11354D1*
X13170Y11555D2*
X13075D1*
X13065Y11469D1*
X13075Y11478D1*
X13103Y11488D1*
X13132D1*
X13161Y11478D1*
X13180Y11459D1*
X13189Y11430D1*
Y11411D1*
X13180Y11383D1*
X13161Y11363D1*
X13132Y11354D1*
X13103D1*
X13075Y11363D1*
X13065Y11373D1*
X13056Y11392D1*
X13784Y11349D2*
X13870D1*
X13899Y11359D1*
X13909Y11369D1*
X13918Y11388D1*
Y11407D1*
X13909Y11426D1*
X13899Y11436D1*
X13870Y11445D1*
X13784D1*
Y11244D1*
X13851Y11349D2*
X13918Y11244D1*
X14095Y11416D2*
X14085Y11435D1*
X14056Y11445D1*
X14037D1*
X14009Y11435D1*
X13989Y11407D1*
X13980Y11359D1*
Y11311D1*
X13989Y11273D1*
X14009Y11254D1*
X14037Y11244D1*
X14047D1*
X14075Y11254D1*
X14095Y11273D1*
X14104Y11302D1*
Y11311D1*
X14095Y11340D1*
X14075Y11359D1*
X14047Y11368D1*
X14037D1*
X14009Y11359D1*
X13989Y11340D1*
X13980Y11311D1*
X14869Y12093D2*
X14955D1*
X14984Y12103D1*
X14994Y12113D1*
X15003Y12132D1*
Y12151D1*
X14994Y12170D1*
X14984Y12180D1*
X14955Y12189D1*
X14869D1*
Y11988D1*
X14936Y12093D2*
X15003Y11988D1*
X15103D2*
X15199Y12189D1*
X15065D1*
X16094Y11334D2*
X16180D1*
X16209Y11344D1*
X16218Y11353D1*
X16228Y11372D1*
Y11391D1*
X16218Y11411D1*
X16209Y11420D1*
X16180Y11430D1*
X16094D1*
Y11229D1*
X16161Y11334D2*
X16228Y11229D1*
X16337Y11430D2*
X16309Y11420D1*
X16299Y11401D1*
Y11382D1*
X16309Y11363D1*
X16328Y11353D1*
X16366Y11344D1*
X16395Y11334D1*
X16414Y11315D1*
X16423Y11296D1*
Y11267D1*
X16414Y11248D1*
X16404Y11238D1*
X16376Y11229D1*
X16337D1*
X16309Y11238D1*
X16299Y11248D1*
X16290Y11267D1*
Y11296D1*
X16299Y11315D1*
X16318Y11334D1*
X16347Y11344D1*
X16385Y11353D1*
X16404Y11363D1*
X16414Y11382D1*
Y11401D1*
X16404Y11420D1*
X16376Y11430D1*
X16337D1*
X12919Y7123D2*
X13005D1*
X13034Y7132D1*
X13044Y7142D1*
X13053Y7161D1*
Y7180D1*
X13044Y7199D1*
X13034Y7209D1*
X13005Y7218D1*
X12919D1*
Y7018D1*
X12986Y7123D2*
X13053Y7018D1*
X13239Y7152D2*
X13230Y7123D1*
X13211Y7104D1*
X13182Y7094D1*
X13172D1*
X13144Y7104D1*
X13125Y7123D1*
X13115Y7152D1*
Y7161D1*
X13125Y7190D1*
X13144Y7209D1*
X13172Y7218D1*
X13182D1*
X13211Y7209D1*
X13230Y7190D1*
X13239Y7152D1*
Y7104D1*
X13230Y7056D1*
X13211Y7027D1*
X13182Y7018D1*
X13163D1*
X13134Y7027D1*
X13125Y7046D1*
X12807Y10379D2*
X12893D1*
X12921Y10389D1*
X12931Y10398D1*
X12941Y10417D1*
Y10437D1*
X12931Y10456D1*
X12921Y10465D1*
X12893Y10475D1*
X12807D1*
Y10274D1*
X12874Y10379D2*
X12941Y10274D1*
X13002Y10436D2*
X13022Y10446D1*
X13050Y10475D1*
Y10274D1*
X13170Y10475D2*
X13141Y10465D1*
X13122Y10436D1*
X13112Y10389D1*
Y10360D1*
X13122Y10312D1*
X13141Y10283D1*
X13170Y10274D1*
X13189D1*
X13217Y10283D1*
X13236Y10312D1*
X13246Y10360D1*
Y10389D1*
X13236Y10436D1*
X13217Y10465D1*
X13189Y10475D1*
X13170D1*
X13236Y10436D2*
X13122Y10312D1*
X6253Y7741D2*
X6339D1*
X6368Y7751D1*
X6378Y7760D1*
X6387Y7779D1*
Y7798D1*
X6378Y7817D1*
X6368Y7827D1*
X6339Y7837D1*
X6253D1*
Y7636D1*
X6320Y7741D2*
X6387Y7636D1*
X6449Y7798D2*
X6468Y7808D1*
X6497Y7836D1*
Y7636D1*
X6559Y7798D2*
X6578Y7808D1*
X6607Y7836D1*
Y7636D1*
X8880Y7868D2*
X8966D1*
X8994Y7878D1*
X9004Y7888D1*
X9014Y7907D1*
Y7926D1*
X9004Y7945D1*
X8994Y7955D1*
X8966Y7964D1*
X8880D1*
Y7763D1*
X8947Y7868D2*
X9014Y7763D1*
X9075Y7926D2*
X9095Y7935D1*
X9123Y7964D1*
Y7763D1*
X9195Y7916D2*
Y7926D1*
X9204Y7945D1*
X9214Y7954D1*
X9233Y7964D1*
X9271D1*
X9290Y7954D1*
X9300Y7945D1*
X9310Y7926D1*
Y7907D1*
X9300Y7887D1*
X9281Y7859D1*
X9185Y7763D1*
X9319D1*
X8871Y9548D2*
X8957D1*
X8986Y9558D1*
X8996Y9567D1*
X9005Y9586D1*
Y9606D1*
X8996Y9625D1*
X8986Y9634D1*
X8957Y9644D1*
X8871D1*
Y9443D1*
X8938Y9548D2*
X9005Y9443D1*
X9067Y9605D2*
X9086Y9615D1*
X9115Y9644D1*
Y9443D1*
X9196Y9644D2*
X9301D1*
X9244Y9567D1*
X9273D1*
X9292Y9558D1*
X9301Y9548D1*
X9311Y9519D1*
Y9500D1*
X9301Y9472D1*
X9282Y9452D1*
X9253Y9443D1*
X9225D1*
X9196Y9452D1*
X9187Y9462D1*
X9177Y9481D1*
X6268Y9554D2*
X6354D1*
X6383Y9563D1*
X6393Y9573D1*
X6402Y9592D1*
Y9611D1*
X6393Y9630D1*
X6383Y9640D1*
X6354Y9649D1*
X6268D1*
Y9448D1*
X6335Y9554D2*
X6402Y9448D1*
X6464Y9611D2*
X6483Y9621D1*
X6512Y9649D1*
Y9448D1*
X6669D2*
Y9649D1*
X6574Y9515D1*
X6717D1*
X13230Y8901D2*
Y8757D1*
X13240Y8729D1*
X13259Y8710D1*
X13288Y8700D1*
X13307D1*
X13336Y8710D1*
X13355Y8729D1*
X13364Y8757D1*
Y8901D1*
X13426Y8863D2*
X13445Y8872D1*
X13474Y8901D1*
Y8700D1*
X9826Y8849D2*
Y8706D1*
X9835Y8677D1*
X9855Y8658D1*
X9883Y8648D1*
X9902D1*
X9931Y8658D1*
X9950Y8677D1*
X9960Y8706D1*
Y8849D1*
X10031Y8801D2*
Y8811D1*
X10041Y8830D1*
X10050Y8839D1*
X10070Y8849D1*
X10108D1*
X10127Y8839D1*
X10136Y8830D1*
X10146Y8811D1*
Y8792D1*
X10136Y8772D1*
X10117Y8744D1*
X10022Y8648D1*
X10156D1*
X12912Y13397D2*
X12989Y13196D1*
X13065Y13397D1*
X13127Y13301D2*
X13213D1*
X13241Y13311D1*
X13251Y13321D1*
X13261Y13340D1*
Y13359D1*
X13251Y13378D1*
X13241Y13388D1*
X13213Y13397D1*
X13127D1*
Y13196D1*
X13194Y13301D2*
X13261Y13196D1*
X13322Y13359D2*
X13342Y13368D1*
X13370Y13397D1*
Y13196D1*
X13015Y12930D2*
D43*
X12986Y12916D1*
X12958Y12887D1*
X12943Y12858D1*
X12929Y12815D1*
Y12743D1*
X12943Y12700D1*
X12958Y12672D1*
X12986Y12643D1*
X13015Y12628D1*
X13072D1*
X13101Y12643D1*
X13130Y12672D1*
X13144Y12700D1*
X13158Y12743D1*
Y12815D1*
X13144Y12858D1*
X13130Y12887D1*
X13101Y12916D1*
X13072Y12930D1*
X13015D1*
X13366D2*
X13337D1*
X13308Y12916D1*
X13294Y12873D1*
Y12628D1*
X13251Y12829D2*
X13351D1*
X13573Y12930D2*
X13545D1*
X13516Y12916D1*
X13501Y12873D1*
Y12628D1*
X13458Y12829D2*
X13559D1*
X13824Y12786D2*
X13809Y12815D1*
X13766Y12829D1*
X13723D1*
X13680Y12815D1*
X13666Y12786D1*
X13680Y12758D1*
X13709Y12743D1*
X13780Y12729D1*
X13809Y12715D1*
X13824Y12686D1*
Y12672D1*
X13809Y12643D1*
X13766Y12628D1*
X13723D1*
X13680Y12643D1*
X13666Y12672D1*
X13916Y12743D2*
X14088D1*
Y12772D1*
X14074Y12801D1*
X14060Y12815D1*
X14031Y12829D1*
X13988D1*
X13959Y12815D1*
X13930Y12786D1*
X13916Y12743D1*
Y12715D1*
X13930Y12672D1*
X13959Y12643D1*
X13988Y12628D1*
X14031D1*
X14060Y12643D1*
X14088Y12672D1*
X14224Y12930D2*
Y12686D1*
X14238Y12643D1*
X14267Y12628D1*
X14296D1*
X14181Y12829D2*
X14281D1*
X9513Y4419D2*
X9499Y4448D1*
X9470Y4477D1*
X9441Y4491D1*
X9384D1*
X9355Y4477D1*
X9327Y4448D1*
X9312Y4419D1*
X9298Y4376D1*
Y4304D1*
X9312Y4261D1*
X9327Y4233D1*
X9355Y4204D1*
X9384Y4189D1*
X9441D1*
X9470Y4204D1*
X9499Y4233D1*
X9513Y4261D1*
Y4304D1*
X9441D1*
X9807Y4491D2*
Y4189D1*
X9606Y4491D1*
Y4189D1*
X9899Y4491D2*
Y4189D1*
X10000D1*
X10043Y4204D1*
X10072Y4233D1*
X10086Y4261D1*
X10100Y4304D1*
Y4376D1*
X10086Y4419D1*
X10072Y4448D1*
X10043Y4477D1*
X10000Y4491D1*
X9899D1*
X6507Y8775D2*
X6493Y8804D1*
X6464Y8832D1*
X6436Y8847D1*
X6378D1*
X6349Y8832D1*
X6321Y8804D1*
X6306Y8775D1*
X6292Y8732D1*
Y8660D1*
X6306Y8617D1*
X6321Y8588D1*
X6349Y8560D1*
X6378Y8545D1*
X6436D1*
X6464Y8560D1*
X6493Y8588D1*
X6507Y8617D1*
Y8660D1*
X6436D1*
X6801Y8847D2*
Y8545D1*
X6600Y8847D1*
Y8545D1*
X6893Y8847D2*
Y8545D1*
X6994D1*
X7037Y8560D1*
X7066Y8588D1*
X7080Y8617D1*
X7094Y8660D1*
Y8732D1*
X7080Y8775D1*
X7066Y8804D1*
X7037Y8832D1*
X6994Y8847D1*
X6893D1*
X17481Y7097D2*
X17509Y7111D1*
X17538Y7140D1*
X17552Y7168D1*
Y7226D1*
X17538Y7255D1*
X17509Y7283D1*
X17481Y7298D1*
X17438Y7312D1*
X17366D1*
X17323Y7298D1*
X17294Y7283D1*
X17265Y7255D1*
X17251Y7226D1*
Y7168D1*
X17265Y7140D1*
X17294Y7111D1*
X17323Y7097D1*
X17552Y7004D2*
X17251D1*
X17552Y6803D2*
X17251D1*
X17409Y7004D2*
Y6803D1*
X17480Y6696D2*
X17495D1*
X17523Y6682D1*
X17538Y6668D1*
X17552Y6639D1*
Y6581D1*
X17538Y6553D1*
X17523Y6539D1*
X17495Y6524D1*
X17466D1*
X17437Y6539D1*
X17394Y6567D1*
X17251Y6711D1*
Y6510D1*
X17552Y6039D2*
X17538Y6068D1*
X17509Y6097D1*
X17481Y6111D1*
X17438Y6125D1*
X17366D1*
X17323Y6111D1*
X17294Y6097D1*
X17265Y6068D1*
X17251Y6039D1*
Y5982D1*
X17265Y5953D1*
X17294Y5924D1*
X17323Y5910D1*
X17366Y5896D1*
X17438D1*
X17481Y5910D1*
X17509Y5924D1*
X17538Y5953D1*
X17552Y5982D1*
Y6039D1*
Y5803D2*
X17337D1*
X17294Y5789D1*
X17265Y5760D1*
X17251Y5717D1*
Y5689D1*
X17265Y5645D1*
X17294Y5617D1*
X17337Y5602D1*
X17552D1*
Y5409D2*
X17251D1*
X17552Y5510D2*
Y5309D1*
X17495Y11897D2*
X17523Y11911D1*
X17552Y11940D1*
X17567Y11969D1*
Y12026D1*
X17552Y12055D1*
X17523Y12083D1*
X17495Y12098D1*
X17452Y12112D1*
X17380D1*
X17337Y12098D1*
X17308Y12083D1*
X17280Y12055D1*
X17265Y12026D1*
Y11969D1*
X17280Y11940D1*
X17308Y11911D1*
X17337Y11897D1*
X17567Y11804D2*
X17265D1*
X17567Y11603D2*
X17265D1*
X17423Y11804D2*
Y11603D1*
X17509Y11511D2*
X17523Y11482D1*
X17566Y11439D1*
X17265D1*
X17567Y10968D2*
X17552Y10997D1*
X17523Y11026D1*
X17495Y11040D1*
X17452Y11055D1*
X17380D1*
X17337Y11040D1*
X17308Y11026D1*
X17280Y10997D1*
X17265Y10968D1*
Y10911D1*
X17280Y10882D1*
X17308Y10854D1*
X17337Y10839D1*
X17380Y10825D1*
X17452D1*
X17495Y10839D1*
X17523Y10854D1*
X17552Y10882D1*
X17567Y10911D1*
Y10968D1*
Y10732D2*
X17351D1*
X17308Y10718D1*
X17280Y10689D1*
X17265Y10646D1*
Y10618D1*
X17280Y10575D1*
X17308Y10546D1*
X17351Y10531D1*
X17567D1*
Y10338D2*
X17265D1*
X17567Y10439D2*
Y10238D1*
X17308Y7874D2*
X17567D1*
X17438Y7745D2*
Y8004D1*
Y4591D2*
Y4757D1*
X17439Y9565D2*
Y9731D1*
X17287Y12859D2*
X17546D1*
X17417Y12730D2*
Y12988D1*
X4825Y11203D2*
X4811Y11232D1*
X4782Y11261D1*
X4753Y11275D1*
X4696D1*
X4667Y11261D1*
X4639Y11232D1*
X4624Y11203D1*
X4610Y11160D1*
Y11088D1*
X4624Y11045D1*
X4639Y11017D1*
X4667Y10988D1*
X4696Y10974D1*
X4753D1*
X4782Y10988D1*
X4811Y11017D1*
X4825Y11045D1*
X4918Y11275D2*
Y10974D1*
X5119Y11275D2*
Y10974D1*
X4918Y11131D2*
X5119D1*
X5211Y11217D2*
X5240Y11232D1*
X5283Y11275D1*
Y10974D1*
X5667Y11275D2*
Y10974D1*
X5961Y11275D2*
Y10974D1*
X5760Y11275D1*
Y10974D1*
X10635Y4342D2*
X10801D1*
X10893Y4435D2*
X10922Y4450D1*
X10965Y4493D1*
Y4192D1*
X11230Y4493D2*
X11087D1*
X11072Y4364D1*
X11087Y4378D1*
X11130Y4393D1*
X11173D1*
X11216Y4378D1*
X11245Y4350D1*
X11259Y4306D1*
Y4278D1*
X11245Y4235D1*
X11216Y4206D1*
X11173Y4192D1*
X11130D1*
X11087Y4206D1*
X11072Y4221D1*
X11058Y4249D1*
X11351Y4493D2*
X11466Y4192D1*
X11581Y4493D1*
X7813Y4477D2*
Y4219D1*
X7684Y4348D2*
X7943D1*
X8035Y4441D2*
X8064Y4456D1*
X8107Y4499D1*
Y4197D1*
X8372Y4499D2*
X8229D1*
X8214Y4370D1*
X8229Y4384D1*
X8272Y4398D1*
X8315D1*
X8358Y4384D1*
X8386Y4355D1*
X8401Y4312D1*
Y4284D1*
X8386Y4241D1*
X8358Y4212D1*
X8315Y4197D1*
X8272D1*
X8229Y4212D1*
X8214Y4226D1*
X8200Y4255D1*
X8493Y4499D2*
X8608Y4197D1*
X8723Y4499D1*
X13160Y12112D2*
X13045Y12414D1*
X12930Y12112D1*
X12973Y12213D2*
X13116D1*
X13424Y12414D2*
Y12112D1*
Y12270D2*
X13396Y12299D1*
X13367Y12313D1*
X13324D1*
X13295Y12299D1*
X13266Y12270D1*
X13252Y12227D1*
Y12198D1*
X13266Y12155D1*
X13295Y12127D1*
X13324Y12112D1*
X13367D1*
X13396Y12127D1*
X13424Y12155D1*
X13574Y12414D2*
X13589Y12400D1*
X13603Y12414D1*
X13589Y12428D1*
X13574Y12414D1*
X13589Y12314D2*
Y12069D1*
X13574Y12026D1*
X13546Y12012D1*
X13517D1*
X13696Y12313D2*
Y12170D1*
X13710Y12127D1*
X13739Y12112D1*
X13782D1*
X13811Y12127D1*
X13854Y12170D1*
Y12313D2*
Y12112D1*
X14104Y12270D2*
X14090Y12299D1*
X14047Y12313D1*
X14004D1*
X13961Y12299D1*
X13946Y12270D1*
X13961Y12242D1*
X13989Y12227D1*
X14061Y12213D1*
X14090Y12198D1*
X14104Y12170D1*
Y12155D1*
X14090Y12127D1*
X14047Y12112D1*
X14004D1*
X13961Y12127D1*
X13946Y12155D1*
X14240Y12414D2*
Y12170D1*
X14254Y12127D1*
X14283Y12112D1*
X14312D1*
X14197Y12313D2*
X14297D1*
X4800Y6393D2*
X4786Y6422D1*
X4757Y6451D1*
X4728Y6465D1*
X4671D1*
X4642Y6451D1*
X4613Y6422D1*
X4599Y6393D1*
X4585Y6350D1*
Y6278D1*
X4599Y6235D1*
X4613Y6207D1*
X4642Y6178D1*
X4671Y6163D1*
X4728D1*
X4757Y6178D1*
X4786Y6207D1*
X4800Y6235D1*
X4892Y6465D2*
Y6163D1*
X5093Y6465D2*
Y6163D1*
X4892Y6321D2*
X5093D1*
X5201Y6393D2*
Y6407D1*
X5215Y6436D1*
X5229Y6450D1*
X5258Y6465D1*
X5315D1*
X5344Y6450D1*
X5358Y6436D1*
X5373Y6407D1*
Y6379D1*
X5358Y6350D1*
X5330Y6307D1*
X5186Y6163D1*
X5387D1*
X5771Y6465D2*
Y6163D1*
X6065Y6465D2*
Y6163D1*
X5864Y6465D1*
Y6163D1*
X9549Y11042D2*
Y10740D1*
X9448Y11042D2*
X9649D1*
X9742Y10884D2*
X9871D1*
X9914Y10898D1*
X9928Y10913D1*
X9943Y10941D1*
Y10984D1*
X9928Y11013D1*
X9914Y11027D1*
X9871Y11042D1*
X9742D1*
Y10740D1*
X10035Y10984D2*
X10064Y10999D1*
X10107Y11041D1*
Y10740D1*
X17987Y8916D2*
Y8615D1*
X17887Y8916D2*
X18087D1*
X18180Y8759D2*
X18309D1*
X18352Y8773D1*
X18367Y8787D1*
X18381Y8816D1*
Y8859D1*
X18367Y8888D1*
X18352Y8902D1*
X18309Y8916D1*
X18180D1*
Y8615D1*
X18981Y8845D2*
X18966Y8873D1*
X18937Y8902D1*
X18909Y8916D1*
X18852D1*
X18823Y8902D1*
X18794Y8873D1*
X18780Y8845D1*
X18765Y8802D1*
Y8730D1*
X18780Y8687D1*
X18794Y8658D1*
X18823Y8630D1*
X18852Y8615D1*
X18909D1*
X18937Y8630D1*
X18966Y8658D1*
X18981Y8687D1*
Y8730D1*
X18909D1*
X19274Y8916D2*
Y8615D1*
X19073Y8916D1*
Y8615D1*
X19367Y8916D2*
Y8615D1*
X19467D1*
X19510Y8630D1*
X19539Y8658D1*
X19553Y8687D1*
X19568Y8730D1*
Y8802D1*
X19553Y8845D1*
X19539Y8873D1*
X19510Y8902D1*
X19467Y8916D1*
X19367D1*
X10886Y10891D2*
X11052D1*
X11144Y10984D2*
X11173Y10999D1*
X11216Y11041D1*
Y10740D1*
X11323Y10769D2*
X11309Y10755D1*
X11323Y10740D1*
X11338Y10755D1*
X11323Y10769D1*
X11602Y10999D2*
X11588Y11027D1*
X11545Y11041D1*
X11517D1*
X11473Y11027D1*
X11445Y10984D1*
X11430Y10912D1*
Y10841D1*
X11445Y10783D1*
X11473Y10755D1*
X11517Y10740D1*
X11531D1*
X11574Y10755D1*
X11602Y10783D1*
X11617Y10826D1*
Y10841D1*
X11602Y10884D1*
X11574Y10912D1*
X11531Y10927D1*
X11517D1*
X11473Y10912D1*
X11445Y10884D1*
X11430Y10841D1*
X11881Y11041D2*
X11738D1*
X11724Y10912D1*
X11738Y10927D1*
X11781Y10941D1*
X11824D1*
X11867Y10927D1*
X11896Y10898D1*
X11910Y10855D1*
Y10826D1*
X11896Y10783D1*
X11867Y10755D1*
X11824Y10740D1*
X11781D1*
X11738Y10755D1*
X11724Y10769D1*
X11709Y10798D1*
X12003Y11042D2*
X12118Y10740D1*
X12232Y11042D1*
M02*
